<svg id="Layer_1" data-name="Layer 1" xmlns="http://www.w3.org/2000/svg" viewBox="0 0 1643.23 377.79"><defs><style>.cls-1{fill:#001633;}</style></defs><path class="cls-1" d="M1006.5,146c3-2.84,5.74-5.48,8.53-8.06,23.43-21.74,51.16-31.17,82.82-27.39,40.83,4.92,68,34,72.22,76.38a276.12,276.12,0,0,1,1.4,27.62c.14,48.89,0,97.71,0,146.59v11h-64V362.11c0-47.37.25-94.75-.21-142.1a95,95,0,0,0-4.61-29.73c-8.14-23.46-35.56-27.94-52.65-8.94,11.13,17.34,19.83,36.08,20.8,57,1.31,27.78-3,54.84-24.73,74.58-33.1,30.15-85.26,13-99-31.49q-14.76-47.85,10.29-91.15l5.25-9.06c-16.21-18.12-41.75-15-51.53,6.63a59,59,0,0,0-5.21,23.24c-.53,50.34-.39,100.68-.46,151v10.12h-63.4c-.19-2.64-.53-4.91-.53-7.15,0-51.84-.51-103.68.27-155.53a169.73,169.73,0,0,1,6.57-45.63c9.43-31.49,38-51.85,70.8-53.77,31.24-1.78,57.89,8,80.44,29.61C1001.66,141.64,1003.91,143.6,1006.5,146Zm-.69,50.76c-4.34,7.52-8.29,13.39-11.23,19.66-7.69,16.88-9.25,34.36-2.88,52,2.32,6.45,6.51,11.49,14.3,11.6,7.24.12,11.49-4.26,14.3-10.28a36.63,36.63,0,0,0,3.06-9.28c3.74-23-1.86-43.57-17.58-63.86Z"/><path class="cls-1" d="M703.67,372.09H641V219.33a75.38,75.38,0,0,0-.83-13.34c-4.86-27.23-24-41.24-51.8-35.88-15,2.92-29.5,8.84-43.87,14.31-2.49.93-4.4,6.48-4.42,9.94-.26,55.7-.2,111.39-.2,167.07v10.41H477.5V0h62.56V130.5c3.58-1.36,5.9-2.2,8.23-3.2,24.5-10.6,49.77-17.88,76.86-17.31,34.88.63,60.78,18.31,71,51.84a186.26,186.26,0,0,1,7.74,50.06c1,51.5.37,103,.35,154.56C704.11,368.16,703.83,369.82,703.67,372.09Z"/><path class="cls-1" d="M1260.09,256.58a50,50,0,0,0,29.29,52.27c48.27,22,93.82,14.6,136.6-15.17,2.16-1.5,4.19-3.21,7.15-5.62.36,3.24.83,5.37.83,7.6,0,13.41-.83,26.82.3,40.21.91,10.77-3.37,16.32-12.51,20.61-61.19,28.92-121.57,30.75-178.49-9.11-35.74-25-47.82-63.16-47.1-105.65.56-32.18,9.55-62,31.43-86.12,38-41.93,85.89-53,139.88-41.11,23.77,5.2,44,16.69,56.94,38.24,28.23,46.83-.57,95.18-43.91,107.72-36,10.37-71.92,7.05-107.8-.61C1268.72,258.94,1264.73,257.78,1260.09,256.58Zm4.2-47.37c30.47,6.25,60.12,8.43,89.77,1.79,11.84-2.65,17.74-11.11,18.14-21.46a25.48,25.48,0,0,0-17.61-25.23,73.94,73.94,0,0,0-58.77,4C1279.14,176.43,1269.91,190.73,1264.29,209.21Z"/><path class="cls-1" d="M441.37,285.65c0,18.65.31,36.79-.31,54.92-.11,3.27-3.41,7.39-6.4,9.44a152.29,152.29,0,0,1-78.48,26.52c-71.85,4.4-129.62-36.22-145-101.51-14.92-63.28,18-132.29,74.05-154.53,27.34-10.88,55.42-12.72,84.15-8,23.34,3.82,46.71,7.52,71.09,11.46v55.61c-16.58,3.58-32.46,0-48.41-3.79-15-3.57-30.07-8.17-45.3-8.94-47-2.63-79.93,35.38-73,85.94,6.72,49.46,50.79,74.33,103.15,62.56A156.94,156.94,0,0,0,434,289.09c1.45-1,2.9-2.09,4.42-3C438.9,285.73,439.6,285.85,441.37,285.65Z"/><path class="cls-1" d="M805.26,372.16h-63V114.73h63Z"/><path class="cls-1" d="M773.73,79.14c-20.58.13-38.85-18.08-38.85-38.69S752.52,2.34,773.05,2.11a38.53,38.53,0,0,1,2.2,77Z"/></svg>