<svg id="Layer_1" data-name="Layer 1" xmlns="http://www.w3.org/2000/svg" viewBox="0 0 1643.23 377.79"><defs><style>.cls-1{fill:#001633;}</style></defs><path class="cls-1" d="M1059.27,89.77c36.79,0,73.64-1.31,110.3.37s60.22,33.73,50.74,66.05c-5.08,17.3-18.06,27-33.67,34-3.12,1.4-6.36,2.5-8.37,3.31,12.31,16.85,24.58,33.14,36.3,49.8C1228.41,263,1241,283.84,1268,288.5l-.86,2.27c-18.26,0-36.57.64-54.75-.52-3.93-.25-8-6.62-11-10.85-15.11-20.77-29.22-42.31-45.06-62.49-14.21-18.12-23.87-21.87-39.71-20.16,0,24.38-.41,48.69.21,73,.25,9.77,8.83,13.23,16.72,16.06,3.47,1.23,7.2,1.68,10.69,3.7h-89.53a52,52,0,0,1,5.15-2.5c21.38-6.86,22.85-7.43,23.33-29.55,1-46.33,1.19-92.73,1-139.1-.07-17.27-4.23-21.17-21-25.27a32.69,32.69,0,0,1-4.14-1.64A9.42,9.42,0,0,0,1059.27,89.77Zm55.15,105.11c17.44-3.94,33.43-5.52,47.73-11.27,19.24-7.72,27.34-25.21,27.19-45.23-.15-19.85-11.42-33.81-29.79-39.95-11.11-3.71-23.58-3.43-35.43-5-6.41-.81-8.39,2.93-8.58,8.4-.42,11-1,22.15-1.11,33.24-.13,18.66,0,37.3,0,59.76Z"/><path class="cls-1" d="M1455.55,290.2a50.87,50.87,0,0,1,5.12-2.69c20.95-7.13,24.06-10.34,24.39-32.7.68-45.07,1-90.17.42-135.24-.25-20.82-2-21.62-21.82-27-.8-.21-1.47-.9-3.75-2.39,4-.32,6.61-.7,9.17-.7,45.74,0,91.55.13,137.23-.19,6.82,0,10.23,2.05,12.57,8.41,4.63,12.61,10.07,24.93,15.16,37.37l-2,1.37c-3.74-4-7.72-7.72-11.18-12-17.26-20.82-38.91-32-66.37-31-9.83.35-19.71-.12-29.5.6-2.52.18-6.86,3.44-6.9,5.35-.44,28.19-.31,56.38-.31,85.62,15,.84,29.63.51,43.8-4.86,16-6.06,19.62-21,25.65-34.84v86.73c-9.49-36.4-34.59-46.46-69.61-41.13a46.58,46.58,0,0,0-.83,6.76c.24,21.59.34,43.18,1,64.76.55,17.25,3.4,20.8,20.38,22.44,22.76,2.21,46.56,4.81,66.54-8.63,12-8.06,20.76-20.85,30.82-31.65,2.2-2.37,3.75-5.35,5.6-8.05l2.13,1-13.72,52.68Z"/><path class="cls-1" d="M126.44,236.31c-7-40.34-32.54-51.37-69.56-46.07,0,7.61-.17,15.73,0,23.85.39,16.55.63,33,1.56,49.49.93,16.89,4.93,20.68,21.79,22.88A10.79,10.79,0,0,1,86.45,289H0c.81-.94,1.21-1.9,1.86-2.11,21.18-6.92,24.2-9.41,24.73-31.3,1.11-45.07,1.4-90.18,1.18-135.27-.1-20.24-3.09-22.8-22.53-28A45.62,45.62,0,0,1,.67,90.26c4.54-.4,7-.8,9.55-.8,46.4,0,92.79.08,139.18-.18,6.27,0,9.81,1.41,12,7.72,3.69,10.8,8.35,21.27,12.5,31.92a12.13,12.13,0,0,1,.47,8.41c-6.28-6.92-12.68-13.75-18.85-20.75C143.11,102.55,127.77,94.52,109,94c-14-.42-27.94,0-41.91-.4-7.22-.18-7.45,5.1-7.72,9.56-.8,15.53-1.19,31.1-1.48,46.65-.22,11.4,0,22.82,0,35.29,15.82.28,30.71-.15,45.42-5,17.24-5.64,20.22-20.66,25.29-35v88.88Z"/><path class="cls-1" d="M447.46,112.69l21.33-25.85c5.51,14.41,11.49,29.9,17.36,45.43,15,39.71,29.91,79.52,45,119.24,6.5,17.11,13.23,34.19,34.58,38.89H484.43c.45-1,.58-2,.91-2.07,21.1-4.61,21.3-10.52,14.42-29.91l-15.91-44.78c-24,0-47.18-.11-70.36.18a8.2,8.2,0,0,0-6.17,4c-6.41,15.24-12.81,30.4-18.32,45.92-5.19,14.61-2.21,19,13.13,22.91a15.19,15.19,0,0,1,7,3.39H351.22c20.85-5.09,26.93-22.83,34.19-39.22q28.32-64.44,56-129.16c1.59-3.71,1.73-8.07,2.53-12.13Zm-.16,8.09-35.47,86.13h69.49C470.05,178.36,459.26,150.93,447.3,120.78Z"/><path class="cls-1" d="M760.1,90h81.2a8.78,8.78,0,0,1,0,1.45c-24.1,3.19-25.2,20.86-25.2,39.53,0,43.2-.18,86.4-.22,129.6,0,17.95,3.41,22.28,20.51,26.59a9.16,9.16,0,0,1,5.33,2.73H758c25.15-3.39,27.07-21.52,27.11-41.18q.13-60.51.68-121C785.92,109,783,92.92,760.1,90Z"/></svg>