<svg id="Layer_1" data-name="Layer 1" xmlns="http://www.w3.org/2000/svg" viewBox="0 0 1643.23 377.79"><defs><style>.cls-1{fill:#001633;}</style></defs><g id="bBdaiX"><path class="cls-1" d="M0,200c2.94-14.46,5-29.16,9-43.33C41.89,39,148.53,6.57,225.81,24.17c45,10.3,79.12,52.93,80.73,99.88l-55.26,14.63c-2.12-5.12-4.08-9.91-6.09-14.68-16.85-40-46.6-55.95-88.82-45.61-53,13-79.12,51.29-89.23,101.55a163.52,163.52,0,0,0-.74,57.57c8.58,52.09,53.55,77,103.17,58.82,27.47-10.06,44.56-30.36,55.93-59H164.35c3.36-17.42,6.36-32.87,9.44-48.79H294.25c-10.77,55.17-21.36,109.39-32.08,164.3h-49.9V324.33c-2.21.31-3.58.07-4.13.63-35.29,36-78.2,39.92-123.32,26.14-45.67-13.9-70.44-48-80.7-93.47-1.41-6.26-2.74-12.47-4.1-18.79Z"/><path class="cls-1" d="M1643.22,334.74c-6.72,13.59-15.74,23.75-32.62,23.59-17.41-.15-30.27-10-33.39-26.38-3.11-16.19,5.57-32.27,20.34-37.69,16.4-6,33.76.34,42,15.36l3.72,6.88Z"/><path class="cls-1" d="M1238.87,253.64c-4.09,27.52,11.66,49.58,37.13,53.62,28.62,4.55,50.11-7.74,67.73-29,2.64-3.18,5.13-6.48,8.21-10.38l45.79,23.44c-21.59,33.49-48.46,58.27-88,63.65-18.84,2.56-39,2.74-57.57-1.11-41.8-8.64-68.43-42.22-72.43-86.09-7.11-78,41.89-142,118.81-153.61,31.27-4.72,61.9-1.79,87,20.48,27.83,24.65,32.63,57.21,28.79,91.82-3.06,27.21-3.66,27.14-31.21,27.14H1238.87Zm11.26-46.22h107.11c.89-26.12-13.57-43-38.08-45.27-29.14-2.7-58.15,15.89-69,45.27Z"/><path class="cls-1" d="M563,111.23a113.63,113.63,0,0,1,34.07,4.15c20.6,5.87,39.34,17.66,52.1,35,14.73,19.93,20.32,45,19.76,69.43-1.37,60.74-32.88,109.51-84.36,129.12-28.83,11-58.77,12.74-88.35,3.9-40.64-12.14-62.87-40.67-68.13-82.42-8.26-65.61,26.43-128,84.11-149C528.42,115.49,545.77,111.66,563,111.23ZM606.59,224.3c0-2.28.15-4.57,0-6.84-1.67-22.64-7.39-44-31.08-52.38-24-8.49-45.67-1.24-63.16,17.16-21.11,22.19-24.81,49.58-21.83,78.43,2.07,20,10,37.34,30.24,44.49,20.41,7.22,39.82,2.61,56.61-10.92,22.19-17.89,28.6-42.77,29.19-69.91Z"/><path class="cls-1" d="M828.83,179.75c-13.75-6.86-23.87-13.68-35-17-12.8-3.84-24.3,3.11-28,13.63-3.56,10.17.24,18.77,13,25.9,9.93,5.52,20.63,9.6,30.89,14.58,37.37,18.09,48.56,37,44.14,74.33-3.84,32.63-25.62,56-61.12,63.4-34,7.07-67.41,5.75-93.89-20.15-10.21-10-16.4-24.16-24-36.66-3.68-6-2.07-10.3,5.13-13,13.43-5,26.66-10.76,40.5-16.43,3.29,6.55,5.87,12.82,9.41,18.51C740.75,304.34,759.43,311.84,779,307c9.48-2.36,16.68-7.68,19.09-17.54s-1.42-18.23-9.73-23.68c-9.17-6-19-11.1-28.51-16.58-7.88-4.54-16.31-8.38-23.57-13.74-41.55-30.63-34.54-94.68,13.21-114.42,35.27-14.56,70.05-12.13,101.14,12.13,6.28,4.9,10.77,12.09,16.74,19Z"/><path class="cls-1" d="M1023.38,179.89c-12.73-6.62-22.44-13.43-33.21-16.84-13.44-4.25-24.95,2.07-29.2,13.12-4.05,10.42-.07,19,13.43,26.41,9.3,5.08,19.19,9,28.86,13.44,35.1,16.38,49.37,37.26,46.44,67.88C1046,322.56,1026,346.12,988,354.4c-32.29,7.05-63.59,5.41-90.89-16.32a81.91,81.91,0,0,1-27.91-42c-.81-2.78.2-8.42,2-9.23,14.39-6.62,29.12-12.38,43.62-18.34,4.6,8.18,8,15.88,12.83,22.48a43.64,43.64,0,0,0,47.86,15.51c8.78-2.78,15.35-8.05,17.41-17.75,1.92-9.28-1.26-16.7-8.48-22.07a202.93,202.93,0,0,0-21.11-13.31c-9.23-5.24-19.06-9.49-28-15.12-22.12-13.89-33.15-33.78-30.78-60.35,2.53-28.41,16.65-48.26,43.42-58.67,35.58-13.83,79.71-5.85,103.11,18.55,11.73,12.23,11.61,13.84-2.15,23.86q-12.48,9-25,17.91C1023.05,180.25,1021.91,180.54,1023.38,179.89Z"/><path class="cls-1" d="M310.07,353.62c8.08-42.14,15.84-82.73,23.68-123.3,12.68-65.57,25.59-131.12,37.95-196.7,1.91-10,4.67-15.26,16.47-14.14,14.21,1.35,28.66.32,44.68.32-2.94,16-5.48,30.48-8.28,44.89C406.51,157.84,388.25,251,370.52,344.16c-1.51,7.89-4.55,9.83-11.86,9.59C342.81,353.32,326.92,353.62,310.07,353.62Z"/><path class="cls-1" d="M1485.43,352.88h-58.37c15.35-79.06,30.51-157.11,45.78-235.74H1531c-1.92,10.72-3.63,20.55-5.85,33.08,18.69-20.38,38.44-35,64.29-36.85,12.82-1,25.91,1.36,41.51,2.38-7.17,19.05-12.82,34.54-19,49.82-.61,1.51-5.22,2.8-7.26,2.1-28.57-9.79-49.61,3.14-67.6,23-22.75,25.19-31.27,56.68-37.25,89.13C1495.26,304,1490.28,328.2,1485.43,352.88Z"/><path class="cls-1" d="M1169.85,116.43c-3.72,19.84-7,38-10.56,56.08-11.13,57-22.58,113.9-33.29,171-1.56,8.29-4.64,10.55-12.56,10.29-15.5-.54-31-.15-48-.15,5-26.16,9.82-50.95,14.61-75.75,9.6-49.54,19.4-99.06,28.71-148.72,1.71-9.06,4.41-13.87,15.08-13.06C1138.52,117.26,1153.28,116.43,1169.85,116.43Z"/><path class="cls-1" d="M1117.72,56.26c.21-19.26,13.86-32.56,33.37-32.48,19.19.06,33.12,14,33.15,33,0,19.26-14.9,33.78-34.2,33.26S1117.51,75.55,1117.72,56.26Z"/></g></svg>