<svg id="Layer_1" data-name="Layer 1" xmlns="http://www.w3.org/2000/svg" viewBox="0 0 1643.23 377.79"><defs><style>.cls-1{fill:#001633;}</style></defs><path class="cls-1" d="M71.28,60.6V169.08c4.39-3.29,7.17-5.26,9.77-7.37,20.3-16.08,43-23.27,68.67-17.17,20.87,5,33.31,19.78,33.83,41.29.76,33,.53,66.09.62,99.13,0,7.33,0,14.81,7.82,18.41,8.81,4.07,18.31,4.78,26.61-.56a16.24,16.24,0,0,0,6.5-11.61c.51-34.48.43-69,0-103.45,0-2.64-3.2-5.68-5.59-7.75-1.63-1.39-4.77-.93-6.64-2.19s-4.28-3.64-4.7-5.85c-.23-1.2,2.8-3.91,4.86-4.54,9.51-3,19.41-4.81,28.7-8.37a306,306,0,0,0,29.68-13.8c7-3.52,8.1-3.21,8.14,4.71.17,30.2.18,60.4.25,90.6,0,15,0,30,.17,44.94.12,12.93,5.82,19.11,18.86,20.25a55.39,55.39,0,0,0,13.49-.37c9.65-1.55,15.29-8,15.36-17.65q.21-48.14,0-96.33c0-9-2.35-10.92-11.72-13.14-4.07-.95-10.86,1-10.79-6.31,0-6.77,6.56-5.09,10.42-6,19.54-4.66,38.42-10.69,55.84-20.94a81.28,81.28,0,0,1,7.72-3.38c.44,9,.81,16.84,1.28,26.28,3.54-2.57,6-4.19,8.23-6,12-10.12,25-18,41.16-19.55,20.12-1.87,37.37,3.17,49.16,20.65,4,5.9,7,6,12.09,1.13,20-18.8,43.38-26.91,70.71-20.17,22.34,5.5,33.4,18.5,34,41.45.88,33,1.11,66.08,1,99.13,0,10.5,1.61,18.25,13.55,20.46,1.76.33,4.1,4.19,3.92,6.22-.15,1.71-3.56,4.44-5.58,4.46q-38.16.46-76.34,0c-2.42,0-4.81-3.34-7.23-5.11,1.93-2,3.53-5.27,5.82-5.85,8.2-2.11,11.17-7.49,11.17-15.19-.08-32.58,0-65.16-.51-97.74-.28-15.49-10.74-24.49-26-24-16.12.56-26.71,10.4-26.76,25.44-.11,32.11.14,64.22,0,96.34,0,7.58,2.9,12.23,10.31,14,1.4.32,3.18.31,4,1.19,1.76,1.81,4,4.07,4.12,6.22,0,1.48-3,3.73-5.05,4.49-2.35.85-5.17.51-7.78.51H428.79c-1.66,0-3.57.45-4.93-.22a42.33,42.33,0,0,1-6.17-4.47c1.54-2,2.72-5.18,4.69-5.78,9.31-2.79,12.48-9.13,12.46-18.3-.09-31.39.18-62.83,0-94.16,0-15.36-9.57-24.79-24.9-25.43s-28.34,9.58-28.51,23.89c-.38,33.29,0,66.59.77,99.86.08,3.75,4.35,7.82,7.5,10.92,1.81,1.78,5.58,1.39,7.88,2.91,2,1.3,4.65,4.09,4.37,5.78s-3.46,3.63-5.72,4.69c-1.58.74-3.74.31-5.58.31H121.74c-1.4,0-3.09.42-4.19-.17-1.86-1-4.74-2.61-4.72-3.93,0-2,1.9-5.59,3.4-5.83,11.8-1.82,12.93-10.52,13.1-19.64.27-14.27.14-28.54.15-42.81,0-16.88.19-33.77,0-50.65-.23-16-10.84-25.37-28.13-25.39-16.39,0-28.51,10.31-28.82,25.35-.65,32.33-1,64.67-1.39,97-.09,8.9,2.2,11.62,10.82,14.36,1.39.43,3.07.43,4,1.3,1.72,1.52,4.38,3.82,4.1,5.32-.36,1.84-3.15,3.44-5.19,4.67-1.09.66-2.79.38-4.19.38-24.25,0-48.5.15-72.76-.15-2.66,0-5.29-2.52-7.94-3.87,2-2.15,3.64-5.31,6.12-6.3,7.42-2.93,10.84-8,10.83-15.79q-.11-91-.13-181.91c0-7-2.72-11.25-9.94-12.39C3.3,94.93-.94,93.69.25,89.05c.52-2.06,4-4.18,6.52-4.8A193.63,193.63,0,0,0,65,61.63a17,17,0,0,1,3.22-1.39A13.38,13.38,0,0,1,71.28,60.6Z"/><path class="cls-1" d="M1051.55,59.33V166.84l2,.71c2.89-2.26,5.76-4.55,8.68-6.79,20.69-15.9,43.54-23.27,69.45-16.26,19.76,5.34,31.61,19.2,32.21,39.54,1,34,.74,68,1,101.92.08,12.85,1.17,14.1,13.39,18.22,2.31.78,3.93,3.67,5.89,5.59-2.33,1.87-4.59,5.23-7,5.36-11.62.6-23.29.35-34.91.38-14,0-28.06.18-42.08-.19-2.44-.07-4.82-2.48-7.22-3.82,1.89-2.22,3.41-5.78,5.73-6.42,6.8-1.86,9.91-6,10.54-12.57.29-3.07.61-6.16.61-9.23,0-30,.14-59.92,0-89.89,0-16.4-10.08-25.9-27.21-26.23s-29.43,10.06-29.77,25.87c-.64,31.86-1,63.72-1.28,95.58-.1,10,2.22,12.39,12,15.78,2.79,1,7,3.84,7,6,.18,4.91-4.54,5.16-8.46,5.16-25,0-49.95.14-74.91-.16-2.32,0-4.61-2.8-7-4.19,1.7-1.92,3.08-4.85,5.19-5.59,8.46-2.79,12-8.38,11.93-17.17q-.26-89.9-.12-179.78c0-8-2.94-12.34-10.89-14-2.34-.5-4.18-3.63-6.17-5.58,2.12-1.76,4-4.6,6.43-5.11a192,192,0,0,0,59.53-23.1C1047.23,60.15,1048.72,60.08,1051.55,59.33Z"/><path class="cls-1" d="M1276.64,317c-53.49-.25-85.7-24.77-93.16-65.62-6.38-35,1.09-66.92,30-90,28.54-22.77,61.13-25.76,94.86-12.56,16,6.24,28.76,16.83,34.54,33.84s1.11,25.72-16.12,30.3c-28.7,7.61-57.4,15.19-86.23,22.24-6.5,1.59-8,4.49-6.47,10.3,1,3.68,1.68,7.43,2.79,11,8.07,25.42,28.43,37.82,54.71,32.79,18.39-3.51,34.78-11,47-26.05,1.4-1.69,4.71-1.79,7.12-2.62.77,2.63,3.06,6.25,2.08,7.74-5.87,9.08-11.29,18.95-19.1,26.14C1311.54,310.35,1290.36,317,1276.64,317Zm-43.52-98.15c19.84-6.37,38.44-12,56.82-18.32,9.55-3.27,12.49-9.06,8.73-18.44A35.43,35.43,0,0,0,1288,167.6c-11.37-8.67-27.41-6-38.69,5.59-12,12.36-15.25,27.9-16.21,45.7Z"/><path class="cls-1" d="M1559.55,316.9c-13.43.25-26.53-1.33-38.8-7.38-8.38-4.19-15-10.07-17.68-19.45-2.9-10.07.74-19.31,9-23,10.42-4.56,24-1.62,28.6,7a79.89,79.89,0,0,1,6.54,18c2,8.08,6.92,12.56,14.87,12.88a45.76,45.76,0,0,0,16.76-2.09,19.89,19.89,0,0,0,9.21-31,66.83,66.83,0,0,0-13.34-12.68c-7.22-5.41-15.12-9.88-22.44-15.16-6.72-4.86-13.61-9.69-19.46-15.5-20.95-20.84-20-50.26,3.19-68.52,26.42-20.81,56.35-23.56,87.55-12.29,10,3.63,17.2,11,19.26,22.09,1.92,10.3-3.78,17.81-14.18,18.93-14.3,1.52-20.72-2.46-25.54-15.9-.71-2-1.4-4.05-2-6.09-3.77-12.08-11-15.68-24.43-12.17-10.61,2.79-17.33,12.56-14.21,22.71a27.88,27.88,0,0,0,9.09,13.1c9.77,7.57,20.38,14,30.48,21,7,4.91,14.25,9.63,20.28,15.56,20.65,20.29,20.26,48-.63,68.15-14.31,13.81-32,20-51.46,21.78C1566.7,317.18,1563.11,316.9,1559.55,316.9Z"/><path class="cls-1" d="M703.65,140.7c11.56,3.13,23.52,5.22,34.54,9.68,10.49,4.18,16.87,12.91,16.47,25.13-.23,7.08-3.86,11.46-10.52,13.53-13.11,4.06-23.74-.95-28.62-13.69a82.62,82.62,0,0,1-2.63-8.12c-1.9-7-5.72-12.16-13.53-12.57-9.14-.5-17.88,1.12-23,9.78-4,6.82-4.19,14.33,1,20.7a64.46,64.46,0,0,0,12.5,11.52c8.11,5.78,16.89,10.63,25,16.39,7.33,5.21,14.91,10.39,21.06,16.84,18,19,17.85,45.29-.47,64-20.76,21.23-47,26.24-75.39,23.73-11.67-1.06-23-3.56-32.9-10.44-9.25-6.47-15-15.19-12.31-26.67a20.12,20.12,0,0,1,8.77-11.84c12.66-7,26.85-1.23,31.9,12.16,1.75,4.65,2.92,9.52,4.33,14.3,1.89,6.46,6.31,9.84,12.85,10.6a51,51,0,0,0,7.1.32c10.22-.31,18.84-3.62,22.73-14s.16-18.89-7.89-25.32c-8.68-7-18.15-12.95-27.07-19.63-8.38-6.24-17.28-12-24.42-19.47-19.21-20.05-17.37-48,3.83-66.06,16.1-13.72,35.27-19,56.1-19A15.88,15.88,0,0,1,703.65,140.7Z"/><path class="cls-1" d="M1425.66,140.29v27a90.21,90.21,0,0,0,8.26-5.41c11.17-9.61,23.33-17.18,38.1-19.82,17.6-3.12,34.8,7.07,39.1,23.22,2.52,9.5-1.4,19-9.64,23-8.85,4.32-18.23,1.68-24.42-6.87-10-13.83-19.71-17.53-32.67-12.44-11.17,4.4-16.93,12.46-16.92,24.59q0,46.33.36,92.72c.07,11.05,2.57,14.13,13.16,17.32.67.2,1.57.15,2,.58,2,1.91,3.84,4,5.74,6-2.43,1.75-4.73,4.75-7.32,5-7.3.7-14.71.28-22.09.28-18.06,0-36.14.18-54.21-.21-2.88,0-7.22-2-8.22-4.34-2-4.45,2.36-5.78,5.89-6.84,7.75-2.29,11-7.79,11-15.56V190c0-7.1-3.19-11.17-10.29-12.06a28.29,28.29,0,0,1-8.38-1.76c-1.74-.84-3.84-3.23-3.82-4.9s2.17-4.19,3.92-4.79c4.94-1.63,10.36-1.87,15.19-3.7,15.72-5.92,31.29-12.29,46.88-18.54C1419.5,143.44,1421.52,142.29,1425.66,140.29Z"/><path class="cls-1" d="M867.74,222.34,905.65,268c1.65-5.58,3.31-9.77,4.08-14.23a145.27,145.27,0,0,0,1.12-14.59h14.56a76.46,76.46,0,0,1-7,34c-2.6,5.47-1.58,8.81,2.13,13,8.13,9.17,15.75,18.78,24.35,29.15-10.78,1-19.84,2.36-25.76-8.25-2.93-5.24-7.62-9.49-11.74-14.45-3.71,3.6-6.74,7-10.15,9.77-18.82,15.82-40,20.33-63.26,12-29.91-10.71-39.93-47.47-18.89-71.21,8.49-9.6,19.7-16.75,30.21-25.55-2.34-3.11-6-7-8.38-11.43-4.07-7.42-9-14.89-10.69-22.94-3.62-16.23,4.75-30.47,19.57-37.08,16.41-7.31,36.95-3.19,47.78,9.57,9.94,11.72,10.59,29.63.95,43a78.3,78.3,0,0,1-12.27,12.81C878.09,215.3,873.23,218.34,867.74,222.34Zm29.66,58.12c-13.45-16.25-27-32.71-40.71-49a5.5,5.5,0,0,0-5.28-.74c-8,5.82-16.88,11-23.3,18.33-17.43,19.87-8.3,47.89,17.18,55.05,19.41,5.46,40.93-4.14,52.11-23.65Zm-38.56-67.53c11.92-7.68,21.82-14.54,26.09-26.77,3.66-10.46.56-21.26-7.41-26.83-8.2-5.73-21.7-5.39-29.42.74a21.63,21.63,0,0,0-5.46,27.05c4.4,8.79,10.43,16.76,16.2,25.81Z"/><path class="cls-1" d="M221,102.61a29.51,29.51,0,1,1,29.28,29.73h0A29.88,29.88,0,0,1,221,102.61Z"/></svg>