<svg id="Layer_1" data-name="Layer 1" xmlns="http://www.w3.org/2000/svg" viewBox="0 0 1643.23 377.79"><defs><style>.cls-1{fill:#001633;}</style></defs><path class="cls-1" d="M375.14,377C290,376.93,221.67,307.85,221.6,221.86c-.06-85.44,69.13-155.52,153.58-155.53,84.79,0,153.62,69.37,153.9,155.14C529.33,307.74,460.69,377.14,375.14,377ZM494.88,221.7c0-66.7-54-121.21-119.85-121.09-65.31.13-119.44,54.88-119.53,120.91-.09,66.83,53.78,121.34,119.77,121.34,66.37,0,119.61-53.93,119.61-121.14Z"/><path class="cls-1" d="M1106.67,371.65c-12.37,0-23.08.34-33.74-.28-2-.12-4.42-3.68-5.75-6.13q-31.23-57.69-62.11-115.54c-2.84-5.35-6-7.49-12.18-7.42-30.24.31-60.48.12-90.72.15-2.73,0-5.45.3-9,.51V371H860.37V72.21c2.93-.16,5.63-.43,8.33-.43q64.92,0,129.84,0c16.49,0,32.5,2.63,47.79,9.2,30.4,13.09,47.39,36.54,49.74,68.92,2.27,31.47-8.86,58.32-35.62,76.91-7.62,5.29-16.35,9-25.38,13.81Zm-213-160.49a42.19,42.19,0,0,0,4.34.55c35,0,70,.35,104.92-.39a83.43,83.43,0,0,0,28.1-6.08c32.59-12.85,42.5-57.36,19-83.3-11.85-13.08-27.15-19.27-44.41-19.52-35.53-.49-71.06-.23-106.59-.25-1.6,0-3.21.26-5.34.45Z"/><path class="cls-1" d="M590.78,71.78V82.55c0,48.21-.33,96.43.2,144.64.15,14.31,1.1,28.94,4.47,42.76,10.33,42.39,47.37,71.28,91.29,72.8,35.86,1.25,66-10.44,87.57-40A96.31,96.31,0,0,0,793,246c.49-54,.29-108.06.38-162.09V72.51h33.16A35.21,35.21,0,0,1,827.3,78c-.07,58.46,1.25,117-.78,175.37-1.63,46.76-23.46,83.88-65.13,107.14C705.64,391.6,631,379.67,589.69,333.4c-18.85-21.12-29.3-46.5-31.34-74.51-1.74-23.16-1.3-46.5-1.43-69.76-.19-36.29.07-72.59-.17-108.89,0-6.31,1.46-9,8.32-8.56C573.23,72.22,581.51,71.78,590.78,71.78Z"/><path class="cls-1" d="M1119.4,371.75c5.95-13.18,11.16-24.73,16.35-36.26q57.62-127.41,115.15-254.82c3-6.66,6.71-8.42,14-9.36,16.51-2.11,23.74,4.56,30.31,19.45,40,90.62,81.26,180.62,122.1,270.85,1.24,2.73,2.37,5.55,4.3,10.06-11.79,0-22.64.32-33.43-.32-1.86-.11-4-4.09-5.11-6.69-9.27-21-18.5-42-27.36-63.17-2-4.88-4.73-6.36-9.91-6.34q-75.35.28-150.69,0c-5.4,0-7.78,1.94-9.74,6.55-9,21.12-18.3,42.09-27.25,63.24-2.09,5-4.61,7.38-10.41,7C1139,371.33,1130.1,371.75,1119.4,371.75Zm82.44-107.65h137.63l-68.69-151.18Z"/><path class="cls-1" d="M451.92,0V33.34H299V0Z"/></svg>