<svg id="Layer_1" data-name="Layer 1" xmlns="http://www.w3.org/2000/svg" viewBox="0 0 1643.23 377.79"><defs><style>.cls-1{fill:#001633;}</style></defs><path class="cls-1" d="M49.14,251.19s0-.09-.08-.1a7.1,7.1,0,0,1-5-4.76q-3.61-9.15-7.26-18.29Q19.23,183.7,1.65,139.36a39.67,39.67,0,0,1-1.52-4.5,4.24,4.24,0,0,1,3.05-5.14c.1,0,.2-.05.3-.06a9.32,9.32,0,0,1,1.67-.12c2.14,0,4.28,0,6.43,0,3.29,0,5.36,1.32,6.57,4.37,2.63,6.57,5.19,13.16,7.79,19.74l23.42,59.46c.17.42.36.83.65,1.51.28-.79.49-1.29.67-1.8Q64.84,173.1,79,133.36A5.66,5.66,0,0,1,89.8,133l0,.07c2.34,6.81,4.8,13.57,7.22,20.36l21.18,59.46c.17.47.37.93.66,1.68.29-.65.47-1.06.64-1.48l25.95-65.92,4.86-12.33c.16-.39.32-.79.49-1.19a6.29,6.29,0,0,1,6.23-4.12c2.32,0,4.64.09,6.95,0a4.48,4.48,0,0,1,4.52,6.34c-1.3,3.35-2.57,6.73-3.89,10.08q-18.72,47.21-37.46,94.41c-.74,1.87-1.52,3.73-2.22,5.62a7.53,7.53,0,0,1-5.24,5.19h-1.8c-2.6-.67-3.83-2.5-4.71-4.94Q105.92,226.2,98.5,206.2,91.8,188.11,85,170.06c-.15-.41-.33-.8-.5-1.2a6.53,6.53,0,0,0-.93,1.82q-14,37.78-27.94,75.6c-.93,2.55-2.22,4.39-5,4.91Z"/><path class="cls-1" d="M574.34,186.85l1,.6c9,5.05,14.33,12.62,15.75,22.82a34.71,34.71,0,0,1-2.3,18.54c-3,7.07-8.2,11.93-15.06,15.14a47.39,47.39,0,0,1-13.57,3.86,85.37,85.37,0,0,1-12.06.74l-49.46,0a9.42,9.42,0,0,1-2.79-.36,6.11,6.11,0,0,1-3.9-5.29c0-.43,0-.86,0-1.29V135.19a9.83,9.83,0,0,1,.08-1.8c.39-2.17,2.17-3.63,4.69-3.88q.64,0,1.29,0c15.07,0,30.14,0,45.2,0a53.44,53.44,0,0,1,24,5.41,33.22,33.22,0,0,1,12.38,10.24,28.08,28.08,0,0,1,5.27,15.48A36.7,36.7,0,0,1,583.37,174,25.86,25.86,0,0,1,575,186.23C574.84,186.4,574.66,186.58,574.34,186.85Zm-64.51,9.43v36.48h36.86a65.5,65.5,0,0,0,11-.85,27.24,27.24,0,0,0,8.32-2.6,13,13,0,0,0,6.8-8.31,27.49,27.49,0,0,0,.86-4.66A15.86,15.86,0,0,0,568.92,203a20.78,20.78,0,0,0-8.26-4.83,40.37,40.37,0,0,0-13-1.89H509.83Zm0-15.56h1.68c10.6,0,21.2,0,31.8,0,2.53,0,5.07-.11,7.59-.3a29.79,29.79,0,0,0,7.3-1.43,11.31,11.31,0,0,0,7.93-8.39,41.72,41.72,0,0,0,1.1-6.57,14.89,14.89,0,0,0-4.61-12.46,18.68,18.68,0,0,0-6.78-4.09,36.68,36.68,0,0,0-12.63-2.09q-16,0-32.06,0c-.42,0-.83,0-1.32.06Z"/><path class="cls-1" d="M416.57,201.26l3.74,5q12,16.07,24,32.15a20.69,20.69,0,0,1,1.77,2.68c1.49,2.84.69,5.2-2.17,6.62a8,8,0,0,1-3.71.88c-2,0-3.95,0-5.92,0a6.57,6.57,0,0,1-5.59-2.67c-2.28-2.95-4.5-5.95-6.73-8.94q-11.49-15.44-23-30.88a2.32,2.32,0,0,0-2.12-1.07c-10.22,0-20.44,0-30.65,0-.46,0-.92,0-1.52.06v37.52a10.29,10.29,0,0,1-.26,2.54,4.26,4.26,0,0,1-3.38,3.18,5.91,5.91,0,0,1-1.4.2c-2.48,0-5,0-7.46,0a5.42,5.42,0,0,1-1.65-.26,4.63,4.63,0,0,1-3.3-4.42c.07-1.41,0-2.83,0-4.25V135.78a17.6,17.6,0,0,1,.13-2.18,4.52,4.52,0,0,1,4.65-4.1c15.43,0,30.82-.12,46.23,0,10.07.1,19.3,3,27.19,9.48a36.14,36.14,0,0,1,13.65,24.41c1.73,14.81-4,26.26-16.34,34.45-1.6,1.06-3.37,1.88-5.06,2.8Zm-51.82-55.87V189.2c.49,0,.9.07,1.32.07h30A36.3,36.3,0,0,0,409.42,187c8.76-3.43,12.77-10.41,12.8-18.83,0-8-3.59-14.35-10.5-18.6a29.11,29.11,0,0,0-15.47-4.13c-10,0-20.08,0-30.11,0Z"/><path class="cls-1" d="M1613.09,201.29c.29.41.49.69.7,1l27.06,36.15c.54.72,1.05,1.47,1.54,2.22a5.75,5.75,0,0,1,.74,4.21,3.29,3.29,0,0,1-1.32,2,7.53,7.53,0,0,1-4.74,1.75c-2.06,0-4.12,0-6.18,0a6.71,6.71,0,0,1-5.78-2.8c-1.8-2.34-3.57-4.72-5.34-7.09q-12.11-16.24-24.19-32.52a2.42,2.42,0,0,0-2.22-1.14c-10.17,0-20.34,0-30.51,0h-1.6v37.61a9.85,9.85,0,0,1-.28,2.54,3.93,3.93,0,0,1-3.28,3.09,36.36,36.36,0,0,1-10.26,0,4.38,4.38,0,0,1-3.65-4.5c0-1.37,0-2.74,0-4.11V135.65a12.45,12.45,0,0,1,.18-2.28,4.54,4.54,0,0,1,4.62-3.85h.38c15.11,0,30.22-.08,45.33,0,9.78.07,18.84,2.7,26.68,8.71,8.36,6.41,13.48,14.86,14.67,25.34,1.72,15.16-4.33,26.69-17.11,34.8-1.37.86-2.86,1.56-4.3,2.32Zm-51.83-12h29.3c1.75,0,3.52,0,5.27-.17a33.68,33.68,0,0,0,9.66-2c8.25-3.12,12.7-9.17,13.17-17.89.44-8.11-2.85-14.59-9.62-19.17a28.06,28.06,0,0,0-15.82-4.66c-10.3-.09-20.6,0-30.9,0-.33,0-.66.05-1.06.08Z"/><path class="cls-1" d="M1192.59,201.27l4.75,6.28,23,30.72a18.38,18.38,0,0,1,1.46,2.11,10.52,10.52,0,0,1,1,2.35,3.76,3.76,0,0,1-1.46,4.11,7.54,7.54,0,0,1-4.76,1.7c-2.1,0-4.21,0-6.31,0a6.46,6.46,0,0,1-5-2.17,23.6,23.6,0,0,1-1.62-2q-14.23-19.1-28.43-38.2a2.54,2.54,0,0,0-2.32-1.19c-10.13,0-20.27,0-30.4,0h-1.57c0,.58,0,1.08,0,1.58v35.9a10.84,10.84,0,0,1-.25,2.54,4.33,4.33,0,0,1-3.3,3.27,2.09,2.09,0,0,1-.51.09c-3.12,0-6.25.11-9.38,0-2-.06-4.07-2.26-4.06-4.83q.09-54.3,0-108.59a5.6,5.6,0,0,1,1.43-4.13,4.17,4.17,0,0,1,3-1.37c.34,0,.68,0,1,0h44.43a44.81,44.81,0,0,1,22.6,5.63c10.4,5.92,17.1,14.71,19.11,26.54,2.49,14.64-2.53,26.47-14.58,35.2a69.84,69.84,0,0,1-6.44,3.76C1193.5,200.84,1193.11,201,1192.59,201.27Zm-51.75-55.88c-.28,2.66-.16,42.94.16,44h1.23c9.57,0,19.14,0,28.7,0a38.55,38.55,0,0,0,14.87-2.51c11.21-4.43,13.54-15.28,12.12-22.63-1.49-7.66-6-12.94-13-16.14a31.19,31.19,0,0,0-13.14-2.66h-30.94Z"/><path class="cls-1" d="M1427.08,145.39v34.68h60.16c1.49,0,2.93,0,4.07,1.19a7.64,7.64,0,0,1,2.36,4.85,24,24,0,0,1,0,3.6,8.17,8.17,0,0,1-2.11,4.86,4.13,4.13,0,0,1-3.19,1.43h-61.24c-.34,1.05-.38,35.29-.05,36.64h62.8a8.65,8.65,0,0,1,2.53.31,4.4,4.4,0,0,1,3.14,4.13c.07,2.4.07,4.8,0,7.2a4.28,4.28,0,0,1-3.31,4,7.72,7.72,0,0,1-2,.29h-75.73a8.41,8.41,0,0,1-1.66-.16,4.17,4.17,0,0,1-3.35-3.85c0-.35,0-.69,0-1v-110a4.19,4.19,0,0,1,3.86-4c.39,0,.77,0,1.16,0H1489a10.35,10.35,0,0,1,2.42.23,4.37,4.37,0,0,1,3.43,4.15c.07,2.28.11,4.55,0,6.82a4.54,4.54,0,0,1-4.52,4.66c-.52,0-1,0-1.55,0h-61.7Z"/><path class="cls-1" d="M1309.24,192.56c-.32.42-.5.72-.72,1l-22.5,24.6a2.61,2.61,0,0,0-.75,1.94q0,11.38,0,22.78a10.21,10.21,0,0,1-.1,1.66,4.43,4.43,0,0,1-4.47,4c-2.91.08-5.83.06-8.75,0a4.29,4.29,0,0,1-4.11-3.78,24.72,24.72,0,0,1-.21-3.85q0-39.18,0-78.36v-25c0-1,0-2.06,0-3.09.1-3.09,1.94-4.9,5.06-4.94,2.58,0,5.15,0,7.73,0a4.67,4.67,0,0,1,4.81,4.66c0,.39,0,.78,0,1.16v59.82c.46-.44.74-.67,1-.94L1341,133.84l1.56-1.71a7.74,7.74,0,0,1,5.81-2.62q3.81-.07,7.6,0a7.34,7.34,0,0,1,2.26.46,4.66,4.66,0,0,1,2.86,5.93,5.13,5.13,0,0,1-.52,1,11.79,11.79,0,0,1-1.15,1.39q-18.24,19.86-36.5,39.7l-1.19,1.33c.32.44.61.85.92,1.24l45.65,59.22a7.38,7.38,0,0,1,1.62,2.89,3.91,3.91,0,0,1-1.14,3.88,6.47,6.47,0,0,1-4.63,2c-2.1,0-4.21,0-6.31,0a9,9,0,0,1-7.87-3.81c-4.84-6.28-9.76-12.52-14.64-18.78L1310.41,194C1310.08,193.62,1309.76,193.22,1309.24,192.56Z"/><path class="cls-1" d="M1057.29,221.58h-1.4l-61.56,0a2,2,0,0,0-2.14,1.33c-3.74,7.57-7.57,15.1-11.34,22.65-.77,1.56-1.83,2.86-3.62,2.93a102.36,102.36,0,0,1-10.94,0c-3.24-.23-4.71-3.34-3.23-6.31Q968.61,231,974.22,220q22.62-44.55,45.27-89.09a14.28,14.28,0,0,1,1.08-1.9,5.28,5.28,0,0,1,8.67-.1,12.27,12.27,0,0,1,1.12,1.88q22.88,44.72,45.72,89.44c3.55,6.95,7,13.94,10.49,20.93a9.28,9.28,0,0,1,.94,2.91,3.86,3.86,0,0,1-3.29,4.35,7.14,7.14,0,0,1-1.53.14c-2.92,0-5.84,0-8.76,0a4.73,4.73,0,0,1-4.69-2.93c-3.77-7.71-7.59-15.37-11.4-23.05C1057.69,222.23,1057.5,222,1057.29,221.58ZM1025,156l-24.78,50.09c1.83.29,48.58.19,49.53-.09-8.22-16.58-16.42-33.14-24.76-50Z"/><path class="cls-1" d="M301.21,248.51H297a4.89,4.89,0,0,1-4.9-3c-3.67-7.56-7.46-15.06-11.14-22.61a2,2,0,0,0-2.12-1.35q-30.85.06-61.7,0a1.86,1.86,0,0,0-2,1.17c-3.78,7.64-7.64,15.25-11.44,22.89a4.78,4.78,0,0,1-4.71,2.93c-2.92,0-5.84,0-8.75,0a7.09,7.09,0,0,1-1.66-.17,4.16,4.16,0,0,1-3.13-5c0-.18.1-.37.17-.55A6,6,0,0,1,186,242q14.61-28.94,29.24-57.86,13.58-26.77,27.25-53.52a12.13,12.13,0,0,1,1.05-1.77,5.27,5.27,0,0,1,8.6-.05,12,12,0,0,1,1,1.64q21,41.12,42,82.22c4.8,9.4,9.49,18.84,14.23,28.27a12.13,12.13,0,0,1,.85,2,4.07,4.07,0,0,1-3.47,5.47,6.53,6.53,0,0,1-.76.08h-4.77Zm-28.47-42.37c-8.4-16.74-16.44-33.41-24.87-50.1-.29.48-.44.72-.57,1l-24.09,48.87a.15.15,0,0,0,0,.12l.1.13Z"/><path class="cls-1" d="M871.9,205.15v37.24a10.33,10.33,0,0,1-.2,2.29,4.44,4.44,0,0,1-4.42,3.63c-2.78.07-5.58.08-8.37,0a4.67,4.67,0,0,1-4.54-4.68V134.9a6.82,6.82,0,0,1,.15-1.91,4.76,4.76,0,0,1,4-3.6,10.22,10.22,0,0,1,1.66-.12c14.6,0,29.19,0,43.79,0A48.22,48.22,0,0,1,926,134.36c7.9,4,14,9.9,17.57,18.09a35.74,35.74,0,0,1,2.84,18.48c-1.5,14.38-9.48,24-22.44,29.76a51.2,51.2,0,0,1-17,4.16c-2.43.19-4.89.27-7.33.27-8.67,0-17.34,0-26,0Zm.07-15.88h1.39l21.76.06c2.23,0,4.47,0,6.7.07a35.6,35.6,0,0,0,13.53-2c5.22-2,9.31-5.28,11.67-10.44a22.86,22.86,0,0,0,1.71-13.45c-1.11-6.86-5-11.73-11-14.92a30.55,30.55,0,0,0-14-3.35c-10.17-.08-20.35,0-30.52,0-.37,0-.74.05-1.17.08Z"/><path class="cls-1" d="M673,186c.36-.54.64-.95.91-1.37l33.51-51.72a7.62,7.62,0,0,1,2.48-2.57,5.94,5.94,0,0,1,3.17-.92c2.36,0,4.72,0,7.08,0a8.91,8.91,0,0,1,2.29.32,4.42,4.42,0,0,1,3,6.09,9.87,9.87,0,0,1-.92,1.69l-42.27,65.2a3.79,3.79,0,0,0-.58,2.17q0,18.8,0,37.57v1.16a4.54,4.54,0,0,1-4.57,4.72c-2.73.1-5.49.11-8.23,0a4.62,4.62,0,0,1-4.57-4.65c0-.43,0-.86,0-1.29V204.91a4.24,4.24,0,0,0-.71-2.39q-21-32.37-42-64.77a15.12,15.12,0,0,1-.91-1.56,4.48,4.48,0,0,1,3.73-6.68c3-.17,6.1-.13,9.14,0a5.83,5.83,0,0,1,4.73,3c4,6.24,8.08,12.45,12.11,18.68l21.8,33.7A14.21,14.21,0,0,0,673,186Z"/></svg>